# xmcd
#
# Track frame offsets:
#	150
#	20529
#	39050
#	53572
#	70573
#	86797
#	106270
#	123291
#	139955
#	153299
#	167232
#	183899
#	201918
#	218444
#	235004
#	250246
#	266828
#	282102
#
# Disc length: 4018 seconds
# Revision: 0
# Processed by: cddbd v1.5.2PL0 Copyright (c) Steve Scherf et al.
# Submitted via: dBpowerAMP V12.0
#
DISCID=ee0fb012
DTITLE=Various Artist - Country Radio January 2007
DYEAR=2007
DGENRE=Country
TTITLE0=Dixie Chicks - The Long Way Around
TTITLE1=Emerson Drive - Moments
TTITLE2=Jimmy Buffet - Bama Breeze
TTITLE3=Keith Urban - Stupid Boy
TTITLE4=Chris Cummings - For The Music
TTITLE5=Martina McBride - Anyway
TTITLE6=Jack Ingram - Lips Of An Angel
TTITLE7=Dierks Bentley - Long Trip Alone
TTITLE8=Josh Turner - Me and God
TTITLE9=Miranda Lambert - Crazy Ex Girlfriend
TTITLE10=Sarah Buxton - Innocence
TTITLE11=Alison Krauss and John Waite - Missing You
TTITLE12=Gary Nichols - I Can't Love You Anymore
TTITLE13=Blue County - I Get To
TTITLE14=Gil Grand - Never Saw Her Leavin Comin
TTITLE15=Carolina Rain - Isn't She
TTITLE16=Amy Dalley - Everybody's Got A Vice
TTITLE17=Jason Michael Carroll - Alyssa Lies
EXTD=
EXTT0=
EXTT1=
EXTT2=
EXTT3=
EXTT4=
EXTT5=
EXTT6=
EXTT7=
EXTT8=
EXTT9=
EXTT10=
EXTT11=
EXTT12=
EXTT13=
EXTT14=
EXTT15=
EXTT16=
EXTT17=
PLAYORDER=
